<svg id="Capa_1" enable-background="new 0 0 509.789 509.789" height="512" viewBox="0 0 509.789 509.789" width="512" xmlns="http://www.w3.org/2000/svg"><g><path d="m112.775 130.493c4.142 0 7.5-3.357 7.5-7.5v-98.01c0-1.853 1.48-3.359 3.3-3.359h262.64c4.142 0 7.5-3.357 7.5-7.5s-3.358-7.5-7.5-7.5h-262.64c-10.09 0-18.3 8.236-18.3 18.359v98.01c0 4.142 3.358 7.5 7.5 7.5z"/><path d="m182.667 127.962h188.912c8.722 0 15.817-7.096 15.817-15.817v-31.52c0-8.722-7.096-15.817-15.817-15.817h-188.912c-8.722 0-15.817 7.096-15.817 15.817v31.52c-.001 8.722 7.095 15.817 15.817 15.817zm-.818-47.337c0-.451.367-.817.817-.817h188.912c.451 0 .817.366.817.817v31.52c0 .451-.367.817-.817.817h-188.911c-.451 0-.817-.366-.817-.817v-31.52z"/><path d="m174.349 186.149h195.287c4.142 0 7.5-3.357 7.5-7.5s-3.358-7.5-7.5-7.5h-195.287c-4.142 0-7.5 3.357-7.5 7.5s3.358 7.5 7.5 7.5z"/><path d="m174.349 271.422h108.163c4.142 0 7.5-3.357 7.5-7.5s-3.358-7.5-7.5-7.5h-108.163c-4.142 0-7.5 3.357-7.5 7.5s3.358 7.5 7.5 7.5z"/><path d="m174.349 230.29h195.287c4.142 0 7.5-3.357 7.5-7.5s-3.358-7.5-7.5-7.5h-195.287c-4.142 0-7.5 3.357-7.5 7.5s3.358 7.5 7.5 7.5z"/><path d="m505.965 155.95c-3.386-6.036-8.665-10.74-15.066-13.507l2.098-6.714c3.257-10.422-2.898-21.692-13.722-25.124l-5.211-1.652c-5.405-1.712-11.09-1.245-16.01 1.319-4.212 2.195-7.389 5.727-9.099 10.028v-95.317c0-10.123-8.201-18.359-18.28-18.359h-10.146c-4.107 0-7.688 3.165-7.811 7.27-.127 4.247 3.278 7.73 7.497 7.73h10.46c1.809 0 3.28 1.507 3.28 3.359v143.07l-14.5 46.396c-.004.013-.01.025-.014.038-.005.015-.007.031-.012.047l-14.643 46.853c-.004.013-.01.026-.015.039-.005.016-.008.032-.012.048l-6.481 20.737c-2.702 8.644 1.086 17.858 8.629 22.713l-4.726 15.122c-1.205 3.855.663 8.146 4.448 9.555.869.323 1.754.475 2.622.475 3.193 0 6.153-2.056 7.156-5.265l4.683-14.987c.868.108 1.737.177 2.603.177 3.3 0 6.553-.784 9.525-2.334.255-.133.491-.289.739-.431v98.658h-61.26c-9.916 0-17.983 8.053-17.983 17.951v64.321h-231.137c-1.818 0-3.298-1.51-3.298-3.366v-23.214c0-.065-.008-.128-.01-.192h39.395c9.76 0 17.7-7.852 17.7-17.502v-81.063h5.47c4.121 0 8.031-2.185 9.897-5.859 2.152-4.238 1.302-9.267-2.028-12.548l-70.423-69.412v-118.36c0-4.107-3.164-7.688-7.269-7.811-4.247-.128-7.731 3.277-7.731 7.497v103.891l-2.951-2.909c-4.364-4.301-10.177-3.336-12.917 2.144v.001l-86.2 84.957c-3.332 3.282-4.182 8.311-2.029 12.549 1.866 3.674 5.776 5.86 9.897 5.86h5.47v81.063c0 9.65 7.94 17.502 17.7 17.502h71.039c-.002.065-.01.127-.01.192v23.214c0 10.127 8.208 18.366 18.298 18.366h239.2c1.894 0 7.106-3.047 7.997-3.964l75.232-77.455c1.286-1.323 2.114-2.956 2.458-4.684.314-.828.494-1.721.494-2.659v-137.766l.339-1.083c.001-.004.003-.007.004-.01.002-.007.003-.013.005-.02l14.661-46.911c.001-.002.002-.004.003-.007.001-.004.002-.008.003-.013l22.403-71.682c2.741 1.497 4.996 3.684 6.502 6.369 1.968 3.518 2.425 7.46 1.288 11.099l-11.766 37.65c-1.235 3.954.968 8.16 4.921 9.396.745.233 1.498.344 2.24.344 3.193 0 6.153-2.056 7.156-5.265l11.767-37.65c2.379-7.614 1.486-15.746-2.519-22.905zm-391.863 290.443h-34.29v-47.404h34.29zm-17.144-173.308 75.835 74.743h-151.671zm-65.408 170.806v-81.063h130.815v81.063c0 1.38-1.211 2.502-2.7 2.502h-30.563v-50.271c0-6.69-5.484-12.133-12.224-12.133h-39.841c-6.74 0-12.224 5.442-12.224 12.133v50.271h-30.563c-1.488 0-2.7-1.122-2.7-2.502zm431.219-317.747c.436-1.396 1.447-2.168 2.218-2.57.792-.413 1.695-.622 2.623-.622.638 0 1.288.1 1.92.3l5.211 1.652c2.972.942 4.738 3.791 3.938 6.351l-26.771 85.66-15.929-5.051zm-25.53 137.708-15.929-5.05 10.195-32.621 15.929 5.051zm-10.951 30.513c-1.336.697-2.992.814-4.542.322l-5.211-1.652c-2.971-.941-4.737-3.79-3.938-6.35l4.24-13.566 15.929 5.05-4.258 13.625c-.438 1.397-1.449 2.169-2.22 2.571zm-56.573 184.398v-54.919c0-1.627 1.338-2.951 2.983-2.951h53.226z"/><path d="m242.474 382.48c.849.31 1.718.457 2.573.457 3.06 0 5.934-1.888 7.045-4.929l6.179-16.915c.878 3.612 1.668 6.637 2.36 9.028 1.579 5.461 3.369 11.651 9.801 11.651 3.576 0 5.503-.001 28.042-26.455 7.581 8.334 20.596 20.05 32.817 18.658 7.388-.851 13.18-5.697 18.289-9.974 8.926-7.47 9.588-6.783 12.38-3.893 14.059 14.566 31.234 9.603 38.351 4.94 3.465-2.269 4.435-6.917 2.167-10.383-2.269-3.465-6.918-4.435-10.383-2.166-.417.271-10.296 6.564-19.342-2.809-7.237-7.497-14.489-7.29-19.296-5.795-5.132 1.596-9.388 5.157-13.503 8.602-3.665 3.066-7.455 6.238-10.378 6.574-5.487.626-17.396-9.799-25.084-19.931-1.376-1.819-3.505-2.913-5.786-2.973-2.27-.06-4.463.922-5.933 2.666-6.426 7.632-13.792 16.104-19.124 21.953-1.913-7.556-4.313-18.336-6.25-27.908-.667-3.291-3.439-5.738-6.787-5.99-3.345-.259-6.457 1.752-7.609 4.905l-15 41.065c-1.422 3.894.58 8.201 4.471 9.622z"/></g></svg>